Coordinates
version=1
nRows=16
nColumns=38
inDegrees=no

Units are S.I. units (second, meters, Newtons, ...)
If the header above contains a line with 'inDegrees', this indicates whether rotational values are in degrees (yes) or radians (no).

endheader
time	pelvis_tilt	pelvis_list	pelvis_rotation	pelvis_tx	pelvis_ty	pelvis_tz	hip_flexion_r	hip_adduction_r	hip_rotation_r	knee_angle_r	ankle_angle_r	subtalar_angle_r	mtp_angle_r	hip_flexion_l	hip_adduction_l	hip_rotation_l	knee_angle_l	ankle_angle_l	subtalar_angle_l	mtp_angle_l	lumbar_extension	lumbar_bending	lumbar_rotation	arm_flex_r	arm_add_r	arm_rot_r	elbow_flex_r	pro_sup_r	wrist_flex_r	wrist_dev_r	arm_flex_l	arm_add_l	arm_rot_l	elbow_flex_l	pro_sup_l	wrist_flex_l	wrist_dev_l
0.1	-0.043144	0.00374061	-0.0112245	0.975787	1.05111	-0.306435	0.616526	0.0508796	-0.138073	-0.318412	0.124631	0.0508115	3.48375e-05	-0.388026	0.00869222	-0.277877	-0.750798	-0.213237	0.0211036	0.000119339	-0.198048	0.0665606	-0.24804	-0.799933	-0.283061	-0.323194	2.0672	2.13122	0.0223425	-0.00780003	-0.239186	-0.26595	0.172573	2.3178	1.86358	0.0428049	0.0219974
0.108333	-0.0285697	-0.00377934	-0.0169338	0.975425	1.04808	-0.305869	0.601395	0.0594116	-0.135706	-0.349799	0.0949433	0.0508115	3.48375e-05	-0.375275	-0.00908921	-0.2854	-0.864096	-0.198444	0.0211036	0.000119339	-0.218778	0.0744339	-0.231188	-0.772425	-0.295451	-0.326561	2.06991	2.15759	0.0223425	-0.00780003	-0.248523	-0.263924	0.174496	2.31046	1.86185	0.0428049	0.0219974
0.116667	-0.0151839	-0.0130285	-0.0230904	0.974585	1.04441	-0.305158	0.587406	0.0712471	-0.130237	-0.385171	0.0709688	0.0508115	3.48375e-05	-0.358898	-0.0279725	-0.292139	-0.975654	-0.183258	0.0211036	0.000119339	-0.239816	0.0834925	-0.212449	-0.740976	-0.309487	-0.326338	2.06906	2.1767	0.0223425	-0.00780003	-0.256271	-0.261694	0.17626	2.29943	1.85695	0.0428049	0.0219974
0.125	-0.00299997	-0.023906	-0.0296522	0.973278	1.04012	-0.304341	0.574821	0.0861996	-0.121842	-0.425013	0.0532038	0.0508115	3.48375e-05	-0.338851	-0.04785	-0.297987	-1.08543	-0.167627	0.0211036	0.000119339	-0.261127	0.093655	-0.191911	-0.705547	-0.325142	-0.322484	2.06458	2.18873	0.0223425	-0.00780003	-0.262433	-0.259274	0.177878	2.2847	1.84883	0.0428049	0.0219974
0.133333	0.00794529	-0.0361491	-0.0365122	0.971507	1.03528	-0.303473	0.564104	0.103804	-0.110967	-0.470112	0.0428059	0.0508115	3.48375e-05	-0.314986	-0.0684147	-0.302651	-1.1933	-0.151438	0.0211036	0.000119339	-0.282602	0.10471	-0.169803	-0.666026	-0.342335	-0.314881	2.05626	2.19413	0.0223425	-0.00780003	-0.267011	-0.256692	0.179402	2.26616	1.83746	0.0428049	0.0219974
0.141667	0.017602	-0.0493207	-0.0434943	0.969272	1.03002	-0.302622	0.555685	0.12331	-0.098331	-0.521058	0.0413477	0.0508115	3.48375e-05	-0.287025	-0.0891169	-0.305629	-1.29899	-0.134562	0.0211036	0.000119339	-0.304036	0.116307	-0.146517	-0.622225	-0.360905	-0.303332	2.04375	2.19366	0.0223425	-0.00780003	-0.270005	-0.254	0.180939	2.24366	1.82282	0.0428049	0.0219974
0.15	0.0259457	-0.0628599	-0.0503593	0.966584	1.02457	-0.301854	0.549668	0.143748	-0.084858	-0.577706	0.0502525	0.0508115	3.48375e-05	-0.254608	-0.10919	-0.306244	-1.40206	-0.116936	0.0211036	0.000119339	-0.325131	0.127995	-0.122567	-0.573955	-0.380588	-0.287616	2.02659	2.18831	0.0223425	-0.00780003	-0.271431	-0.251272	0.182661	2.217	1.80496	0.0428049	0.0219974
0.158333	0.032975	-0.076189	-0.0568192	0.963469	1.01917	-0.301221	0.545593	0.164089	-0.0715455	-0.638834	0.0701511	0.0508115	3.48375e-05	-0.217398	-0.127785	-0.303752	-1.50185	-0.0986264	0.0211036	0.000119339	-0.345552	0.139303	-0.0985164	-0.521145	-0.401017	-0.267595	2.00444	2.17917	0.0223425	-0.00780003	-0.271344	-0.248606	0.184805	2.18609	1.78399	0.0428049	0.0219974
0.166667	0.0387598	-0.0888164	-0.062569	0.959975	1.01395	-0.300752	0.542373	0.183423	-0.0593072	-0.702134	0.100481	0.0508115	3.48375e-05	-0.175213	-0.144142	-0.297472	-1.59747	-0.0798698	0.0211036	0.000119339	-0.364986	0.149852	-0.0748611	-0.463989	-0.421726	-0.243343	1.97725	2.16735	0.0223425	-0.00780003	-0.269873	-0.24613	0.187661	2.15111	1.76008	0.0428049	0.0219974
0.175	0.0434317	-0.100439	-0.0673287	0.956171	1.00898	-0.300451	0.538411	0.201131	-0.0488032	-0.764531	0.139495	0.0508115	3.48375e-05	-0.128146	-0.15776	-0.28693	-1.68781	-0.0610616	0.0211036	0.000119339	-0.383218	0.15941	-0.0519148	-0.403083	-0.442168	-0.215286	1.94553	2.15378	0.0223425	-0.00780003	-0.26724	-0.244009	0.191531	2.11262	1.73364	0.0428049	0.0219974
0.183333	0.0472383	-0.110973	-0.0709092	0.952151	1.00434	-0.300297	0.531883	0.21695	-0.0403062	-0.822723	0.184625	0.0508115	3.48375e-05	-0.0766008	-0.168489	-0.271976	-1.77167	-0.0427053	0.0211036	0.000119339	-0.400128	0.167892	-0.029729	-0.339502	-0.461751	-0.184281	1.91053	2.13919	0.0223425	-0.00780003	-0.263781	-0.242458	0.196667	2.07177	1.70545	0.0428049	0.0219974
0.191667	0.0504502	-0.120475	-0.0732713	0.948023	1.00015	-0.300242	0.521096	0.23092	-0.0336438	-0.873762	0.233026	0.0508115	3.48375e-05	-0.0212487	-0.176503	-0.252847	-1.84778	-0.0253255	0.0211036	0.000119339	-0.415677	0.175266	-0.00809296	-0.274786	-0.479878	-0.151617	1.87427	2.12397	0.0223425	-0.00780003	-0.259951	-0.241741	0.20321	2.03025	1.67666	0.0428049	0.0219974
0.2	0.0532885	-0.129028	-0.0745643	0.943906	0.996584	-0.300206	0.504775	0.243216	-0.0282233	-0.915473	0.282036	0.0508115	3.48375e-05	0.0370572	-0.182176	-0.230186	-1.91495	-0.00937423	0.0211036	0.000119339	-0.429835	0.181439	0.0133953	-0.210828	-0.496	-0.118915	1.83943	2.10829	0.0223425	-0.00780003	-0.256322	-0.242145	0.211113	1.99026	1.64887	0.0428049	0.0219974
0.208333	0.055881	-0.136612	-0.0751305	0.939917	0.993773	-0.300096	0.482215	0.25396	-0.0231228	-0.946611	0.329461	0.0508115	3.48375e-05	0.0973847	-0.185936	-0.205024	-1.97212	0.00485431	0.0211036	0.000119339	-0.442523	0.186147	0.0352077	-0.149663	-0.509658	-0.0879603	1.80905	2.0922	0.0223425	-0.00780003	-0.253554	-0.243941	0.220086	1.95425	1.62409	0.0428049	0.0219974
0.216667	0.0582218	-0.143023	-0.0754589	0.936164	0.99181	-0.299828	0.4533	0.263071	-0.0172357	-0.966797	0.373656	0.0508115	3.48375e-05	0.158808	-0.188142	-0.178707	-2.01846	0.0172858	0.0211036	0.000119339	-0.453562	0.188935	0.0577454	-0.0932214	-0.520508	-0.060465	1.78606	2.0759	0.0223425	-0.00780003	-0.252354	-0.247329	0.229582	1.92458	1.60454	0.0428049	0.0219974
0.225	0.0601722	-0.147855	-0.0761051	0.932747	0.990729	-0.299347	0.418409	0.27021	-0.00944875	-0.976306	0.413474	0.0508115	3.48375e-05	0.220468	-0.18903	-0.152795	-2.05337	0.028089	0.0211036	0.000119339	-0.462649	0.189202	0.0812181	-0.0430725	-0.528327	-0.0378401	1.77288	2.05975	0.0223425	-0.00780003	-0.253411	-0.252394	0.238835	1.9032	1.59221	0.0428049	0.0219974
